<svg width="2204" height="1077" xmlns="http://www.w3.org/2000/svg" xmlns:xlink="http://www.w3.org/1999/xlink" xml:space="preserve" overflow="hidden"><g transform="translate(-1054 -696)"><g><path d="M2156.33 727.58 2523.74 1095.11 2156.21 1462.53 1788.8 1094.99Z" stroke="#BE0D3E" stroke-width="36.6667" stroke-linecap="butt" stroke-linejoin="miter" stroke-miterlimit="8" stroke-opacity="1" fill="none" fill-rule="nonzero"/><rect x="2480" y="939" width="519" height="325" stroke="#004767" stroke-width="32.0833" stroke-linecap="butt" stroke-linejoin="miter" stroke-miterlimit="8" stroke-opacity="1" fill="none"/><rect x="1311" y="939" width="520" height="325" stroke="#004767" stroke-width="32.0833" stroke-linecap="butt" stroke-linejoin="miter" stroke-miterlimit="8" stroke-opacity="1" fill="none"/><path d="M2837 938.5C2837 848.754 2909.75 776 2999.5 776 3089.25 776 3162 848.754 3162 938.5 3162 1028.25 3089.25 1101 2999.5 1101 2909.75 1101 2837 1028.25 2837 938.5Z" stroke="#004767" stroke-width="32.0833" stroke-linecap="butt" stroke-linejoin="miter" stroke-miterlimit="8" stroke-opacity="1" fill="none" fill-rule="evenodd"/><path d="M1149 1257.5C1149 1167.75 1221.75 1095 1311.5 1095 1401.25 1095 1474 1167.75 1474 1257.5 1474 1347.25 1401.25 1420 1311.5 1420 1221.75 1420 1149 1347.25 1149 1257.5Z" stroke="#004767" stroke-width="32.0833" stroke-linecap="butt" stroke-linejoin="miter" stroke-miterlimit="8" stroke-opacity="1" fill="none" fill-rule="evenodd"/><path d="M1789 1093 2083.24 1391.82" stroke="#BE0D3E" stroke-width="32.0833" stroke-linecap="butt" stroke-linejoin="miter" stroke-miterlimit="8" stroke-opacity="1" fill="none" fill-rule="evenodd"/><path d="M2200 770 2507.12 1076.84" stroke="#BE0D3E" stroke-width="32.0833" stroke-linecap="butt" stroke-linejoin="miter" stroke-miterlimit="8" stroke-opacity="1" fill="none" fill-rule="evenodd"/><text fill="#004767" fill-opacity="1" font-family="Lucida Sans Typewriter,Lucida Sans Typewriter_MSFontService,sans-serif" font-style="normal" font-variant="normal" font-weight="400" font-stretch="semi-condensed" font-size="128" text-anchor="start" direction="ltr" writing-mode="lr-tb" unicode-bidi="normal" text-decoration="none" transform="matrix(1 0 0 1 1653.54 1664)">M O N T R E K</text></g></g></svg>
