<svg width="2168" height="798" xmlns="http://www.w3.org/2000/svg" xmlns:xlink="http://www.w3.org/1999/xlink" xml:space="preserve" overflow="hidden"><defs><filter id="fx0" x="-10%" y="-10%" width="120%" height="120%" filterUnits="userSpaceOnUse" primitiveUnits="userSpaceOnUse"><feComponentTransfer color-interpolation-filters="sRGB"><feFuncR type="discrete" tableValues="0.000000 0.000000"/><feFuncG type="discrete" tableValues="0.000000 0.000000"/><feFuncB type="discrete" tableValues="0.000000 0.000000"/><feFuncA type="linear" slope="0.400000" intercept="0.000000"/></feComponentTransfer><feGaussianBlur stdDeviation="6.111111 6.111111"/></filter><clipPath id="clip1"><rect x="1.3894" y="1.2464" width="2159.67" height="791.058"/></clipPath></defs><g transform="translate(-1081 -705)"><g><g clip-path="url(#clip1)" filter="url(#fx0)" transform="translate(1085 708)"><g><g><path d="M1081.05 29.3024 1448.47 396.834 1080.93 764.248 713.52 396.716Z" stroke="#BE0D3E" stroke-width="13.75" stroke-linecap="butt" stroke-linejoin="miter" stroke-miterlimit="8" stroke-opacity="1" fill="#FFFFFF" fill-rule="nonzero" fill-opacity="1"/><rect x="1453.72" y="234.723" width="520" height="324" stroke="#004767" stroke-width="14" stroke-linecap="butt" stroke-linejoin="miter" stroke-miterlimit="8" stroke-opacity="1" fill="#FFFFFF" fill-opacity="1"/><rect x="188.723" y="234.723" width="520" height="324" stroke="#004767" stroke-width="14" stroke-linecap="butt" stroke-linejoin="miter" stroke-miterlimit="8" stroke-opacity="1" fill="#FFFFFF" fill-opacity="1"/><path d="M1810.72 234.223C1810.72 144.476 1883.48 71.7227 1973.22 71.7227 2062.97 71.7227 2135.72 144.476 2135.72 234.223 2135.72 323.969 2062.97 396.723 1973.22 396.723 1883.48 396.723 1810.72 323.969 1810.72 234.223Z" stroke="#004767" stroke-width="14" stroke-linecap="butt" stroke-linejoin="miter" stroke-miterlimit="8" stroke-opacity="1" fill="#FFFFFF" fill-rule="evenodd" fill-opacity="1"/><path d="M26.7228 559.223C26.7228 469.476 99.2526 396.723 188.723 396.723 278.193 396.723 350.723 469.476 350.723 559.223 350.723 648.969 278.193 721.723 188.723 721.723 99.2526 721.723 26.7228 648.969 26.7228 559.223Z" stroke="#004767" stroke-width="14" stroke-linecap="butt" stroke-linejoin="miter" stroke-miterlimit="8" stroke-opacity="1" fill="#FFFFFF" fill-rule="evenodd" fill-opacity="1"/></g></g></g><path d="M2156.33 727.58 2523.74 1095.11 2156.21 1462.53 1788.8 1094.99Z" stroke="#BE0D3E" stroke-width="13.75" stroke-linecap="butt" stroke-linejoin="miter" stroke-miterlimit="8" stroke-opacity="1" fill="#FFFFFF" fill-rule="nonzero" fill-opacity="1"/><rect x="2529" y="933" width="520" height="324" stroke="#004767" stroke-width="13.75" stroke-linecap="butt" stroke-linejoin="miter" stroke-miterlimit="8" stroke-opacity="1" fill="#FFFFFF" fill-opacity="1"/><rect x="1264" y="933" width="520" height="324" stroke="#004767" stroke-width="13.75" stroke-linecap="butt" stroke-linejoin="miter" stroke-miterlimit="8" stroke-opacity="1" fill="#FFFFFF" fill-opacity="1"/><path d="M2886 932.5C2886 842.754 2958.75 770 3048.5 770 3138.25 770 3211 842.754 3211 932.5 3211 1022.25 3138.25 1095 3048.5 1095 2958.75 1095 2886 1022.25 2886 932.5Z" stroke="#004767" stroke-width="13.75" stroke-linecap="butt" stroke-linejoin="miter" stroke-miterlimit="8" stroke-opacity="1" fill="#FFFFFF" fill-rule="evenodd" fill-opacity="1"/><path d="M1102 1257.5C1102 1167.75 1174.53 1095 1264 1095 1353.47 1095 1426 1167.75 1426 1257.5 1426 1347.25 1353.47 1420 1264 1420 1174.53 1420 1102 1347.25 1102 1257.5Z" stroke="#004767" stroke-width="13.75" stroke-linecap="butt" stroke-linejoin="miter" stroke-miterlimit="8" stroke-opacity="1" fill="#FFFFFF" fill-rule="evenodd" fill-opacity="1"/></g></g></svg>