<svg width="2365" height="949" xmlns="http://www.w3.org/2000/svg" xmlns:xlink="http://www.w3.org/1999/xlink" xml:space="preserve" overflow="hidden"><g transform="translate(-1017 -673)"><g><path d="M2200.07 688.321 2659.34 1147.74 2199.93 1607 1740.66 1147.59Z" stroke="#BE0D3E" stroke-width="13.75" stroke-linecap="butt" stroke-linejoin="miter" stroke-miterlimit="8" stroke-opacity="1" fill="#FFFFFF" fill-rule="nonzero" fill-opacity="1"/><rect x="2659" y="896" width="520" height="520" stroke="#004767" stroke-width="13.75" stroke-linecap="butt" stroke-linejoin="miter" stroke-miterlimit="8" stroke-opacity="1" fill="#FFFFFF" fill-opacity="1"/><rect x="1221" y="896" width="520" height="520" stroke="#004767" stroke-width="13.75" stroke-linecap="butt" stroke-linejoin="miter" stroke-miterlimit="8" stroke-opacity="1" fill="#FFFFFF" fill-opacity="1"/><path d="M2984 896C2984 788.304 3071.3 701 3179 701 3286.7 701 3374 788.304 3374 896 3374 1003.7 3286.7 1091 3179 1091 3071.3 1091 2984 1003.7 2984 896Z" stroke="#004767" stroke-width="13.75" stroke-linecap="butt" stroke-linejoin="miter" stroke-miterlimit="8" stroke-opacity="1" fill="#FFFFFF" fill-rule="evenodd" fill-opacity="1"/><path d="M1026 1416C1026 1308.3 1113.3 1221 1221 1221 1328.7 1221 1416 1308.3 1416 1416 1416 1523.7 1328.7 1611 1221 1611 1113.3 1611 1026 1523.7 1026 1416Z" stroke="#004767" stroke-width="13.75" stroke-linecap="butt" stroke-linejoin="miter" stroke-miterlimit="8" stroke-opacity="1" fill="#FFFFFF" fill-rule="evenodd" fill-opacity="1"/></g></g></svg>